STARTFONT 2.3
FONT -FontForge-Satisfy-Book-R-Normal--12-120-72-72-P-52-ISO10646-1
SIZE 12 72 72  2
FONTBOUNDINGBOX 14 18 -3 -6
COMMENT "Generated by fontforge, http://fontforge.sourceforge.net"
COMMENT "Copyright (c) 2011 by Font Diner, Inc. All rights reserved."
STARTPROPERTIES 40
FOUNDRY "FontForge"
FAMILY_NAME "Satisfy"
WEIGHT_NAME "Book"
SLANT "R"
SETWIDTH_NAME "Normal"
ADD_STYLE_NAME ""
PIXEL_SIZE 12
POINT_SIZE 120
RESOLUTION_X 72
RESOLUTION_Y 72
SPACING "P"
AVERAGE_WIDTH 52
CHARSET_REGISTRY "ISO10646"
CHARSET_ENCODING "1"
FONTNAME_REGISTRY ""
CHARSET_COLLECTIONS "ISO10646-1"
BITS_PER_PIXEL 2
FONT_NAME "Satisfy-Regular"
FACE_NAME "Satisfy Regular"
COPYRIGHT "Copyright (c) 2011 by Font Diner, Inc. All rights reserved."
FONT_VERSION "1.001"
FONT_ASCENT 10
FONT_DESCENT 2
UNDERLINE_POSITION -1
UNDERLINE_THICKNESS 1
X_HEIGHT 4
CAP_HEIGHT 8
RAW_ASCENT 799
RAW_DESCENT 200
NORM_SPACE 3
RELATIVE_WEIGHT 40
RELATIVE_SETWIDTH 50
SUPERSCRIPT_X 0
SUPERSCRIPT_Y 5
SUPERSCRIPT_SIZE 7
SUBSCRIPT_X 0
SUBSCRIPT_Y 1
SUBSCRIPT_SIZE 7
AVG_LOWERCASE_WIDTH 49
AVG_UPPERCASE_WIDTH 68
ENDPROPERTIES
CHARS 227
STARTCHAR space
ENCODING 32
SWIDTH 280 0
DWIDTH 3 0
BBX 1 1 0 0
BITMAP
00
ENDCHAR
STARTCHAR exclam
ENCODING 33
SWIDTH 249 0
DWIDTH 3 0
BBX 3 10 0 -1
BITMAP
08
1C
28
24
30
60
60
40
90
40
ENDCHAR
STARTCHAR quotedbl
ENCODING 34
SWIDTH 249 0
DWIDTH 3 0
BBX 4 4 0 5
BITMAP
26
36
69
58
ENDCHAR
STARTCHAR numbersign
ENCODING 35
SWIDTH 417 0
DWIDTH 5 0
BBX 6 7 0 1
BITMAP
0440
0980
7F90
2200
BB80
5900
4400
ENDCHAR
STARTCHAR dollar
ENCODING 36
SWIDTH 292 0
DWIDTH 4 0
BBX 5 9 -1 0
BITMAP
0100
0640
1880
1840
0C00
0500
5200
6900
1400
ENDCHAR
STARTCHAR percent
ENCODING 37
SWIDTH 574 0
DWIDTH 7 0
BBX 7 9 0 0
BITMAP
1808
6620
5590
5980
1600
09A0
1954
2224
92A0
ENDCHAR
STARTCHAR ampersand
ENCODING 38
SWIDTH 460 0
DWIDTH 6 0
BBX 6 10 -1 -1
BITMAP
00A0
0220
0390
0340
0B00
2B00
6340
9290
7AC0
0480
ENDCHAR
STARTCHAR quotesingle
ENCODING 39
SWIDTH 113 0
DWIDTH 1 0
BBX 2 4 0 5
BITMAP
20
30
60
50
ENDCHAR
STARTCHAR parenleft
ENCODING 40
SWIDTH 234 0
DWIDTH 3 0
BBX 4 11 0 -1
BITMAP
01
09
18
20
20
60
90
90
80
80
50
ENDCHAR
STARTCHAR parenright
ENCODING 41
SWIDTH 204 0
DWIDTH 2 0
BBX 4 11 -1 -1
BITMAP
04
08
09
09
09
0C
08
14
20
60
80
ENDCHAR
STARTCHAR asterisk
ENCODING 42
SWIDTH 327 0
DWIDTH 4 0
BBX 5 4 0 5
BITMAP
0500
6940
1E40
3600
ENDCHAR
STARTCHAR plus
ENCODING 43
SWIDTH 350 0
DWIDTH 4 0
BBX 4 5 0 2
BITMAP
04
08
BE
24
10
ENDCHAR
STARTCHAR comma
ENCODING 44
SWIDTH 200 0
DWIDTH 2 0
BBX 2 2 -1 -1
BITMAP
60
20
ENDCHAR
STARTCHAR hyphen
ENCODING 45
SWIDTH 353 0
DWIDTH 4 0
BBX 4 2 0 3
BITMAP
14
AA
ENDCHAR
STARTCHAR period
ENCODING 46
SWIDTH 213 0
DWIDTH 3 0
BBX 2 2 -1 -1
BITMAP
60
10
ENDCHAR
STARTCHAR slash
ENCODING 47
SWIDTH 262 0
DWIDTH 3 0
BBX 6 9 -1 0
BITMAP
0050
0080
0240
0200
0800
1800
2000
6000
C000
ENDCHAR
STARTCHAR zero
ENCODING 48
SWIDTH 489 0
DWIDTH 6 0
BBX 6 9 0 0
BITMAP
0640
0C80
2490
3090
6090
A0C0
9180
6240
3900
ENDCHAR
STARTCHAR one
ENCODING 49
SWIDTH 272 0
DWIDTH 3 0
BBX 3 9 0 0
BITMAP
08
2C
18
24
20
30
60
90
90
ENDCHAR
STARTCHAR two
ENCODING 50
SWIDTH 448 0
DWIDTH 5 0
BBX 6 9 -1 0
BITMAP
01A0
0930
0C30
0060
0080
0240
0900
2400
7FC0
ENDCHAR
STARTCHAR three
ENCODING 51
SWIDTH 462 0
DWIDTH 6 0
BBX 6 10 0 -1
BITMAP
0A80
2490
30C0
0280
0A00
0640
0180
8240
AA00
1400
ENDCHAR
STARTCHAR four
ENCODING 52
SWIDTH 452 0
DWIDTH 5 0
BBX 5 9 0 0
BITMAP
0180
06C0
0980
2540
A640
AB80
0700
0600
0A00
ENDCHAR
STARTCHAR five
ENCODING 53
SWIDTH 444 0
DWIDTH 5 0
BBX 6 10 0 -1
BITMAP
0A90
1990
2000
2500
7A40
1140
0140
D200
BC00
1000
ENDCHAR
STARTCHAR six
ENCODING 54
SWIDTH 477 0
DWIDTH 6 0
BBX 5 10 0 -1
BITMAP
0280
0980
1840
3640
7880
A4C0
9180
6240
3A00
0400
ENDCHAR
STARTCHAR seven
ENCODING 55
SWIDTH 406 0
DWIDTH 5 0
BBX 6 9 0 0
BITMAP
1A90
2490
0180
0300
0900
1C00
2400
3000
7000
ENDCHAR
STARTCHAR eight
ENCODING 56
SWIDTH 444 0
DWIDTH 5 0
BBX 6 10 0 -1
BITMAP
0680
1850
2880
1E40
1D00
6700
8300
8300
9900
1000
ENDCHAR
STARTCHAR nine
ENCODING 57
SWIDTH 462 0
DWIDTH 6 0
BBX 5 10 0 -1
BITMAP
0640
1880
3080
60C0
62C0
3680
1640
4600
BC00
1000
ENDCHAR
STARTCHAR colon
ENCODING 58
SWIDTH 226 0
DWIDTH 3 0
BBX 3 5 -1 -1
BITMAP
04
14
00
60
10
ENDCHAR
STARTCHAR semicolon
ENCODING 59
SWIDTH 212 0
DWIDTH 3 0
BBX 3 5 -1 -1
BITMAP
04
24
00
60
20
ENDCHAR
STARTCHAR less
ENCODING 60
SWIDTH 271 0
DWIDTH 3 0
BBX 3 5 0 1
BITMAP
18
60
D0
60
20
ENDCHAR
STARTCHAR equal
ENCODING 61
SWIDTH 374 0
DWIDTH 4 0
BBX 4 3 0 3
BITMAP
15
6A
AA
ENDCHAR
STARTCHAR greater
ENCODING 62
SWIDTH 250 0
DWIDTH 3 0
BBX 4 5 -1 1
BITMAP
0C
0A
0A
28
50
ENDCHAR
STARTCHAR question
ENCODING 63
SWIDTH 413 0
DWIDTH 5 0
BBX 6 10 0 -1
BITMAP
1A80
7090
2090
0180
1A00
3400
6000
5000
9000
4000
ENDCHAR
STARTCHAR at
ENCODING 64
SWIDTH 648 0
DWIDTH 8 0
BBX 9 8 -1 0
BITMAP
019400
0A0200
18A940
222980
652580
696240
26A600
192400
ENDCHAR
STARTCHAR A
ENCODING 65
SWIDTH 552 0
DWIDTH 7 0
BBX 7 12 -1 -3
BITMAP
0028
0088
0248
0618
0914
0C24
1EB4
7874
3470
7060
E070
0020
ENDCHAR
STARTCHAR B
ENCODING 66
SWIDTH 607 0
DWIDTH 7 0
BBX 7 12 0 -3
BITMAP
0BA0
2D18
0C1C
1828
1860
2BC0
3460
6034
A070
D0A0
EA40
1000
ENDCHAR
STARTCHAR C
ENCODING 67
SWIDTH 548 0
DWIDTH 7 0
BBX 7 11 0 -2
BITMAP
01A0
0A28
1828
3434
7010
A000
D000
D000
D000
A080
3A40
ENDCHAR
STARTCHAR D
ENCODING 68
SWIDTH 632 0
DWIDTH 8 0
BBX 7 11 0 -2
BITMAP
0A90
2474
0C18
1C0C
180C
281C
2418
3034
6060
91C0
AA00
ENDCHAR
STARTCHAR E
ENCODING 69
SWIDTH 523 0
DWIDTH 6 0
BBX 8 11 -1 -2
BITMAP
00A8
0749
0D09
0D18
0D00
0780
1940
3000
7004
7420
2E80
ENDCHAR
STARTCHAR F
ENCODING 70
SWIDTH 585 0
DWIDTH 7 0
BBX 7 11 0 -2
BITMAP
06A4
740C
7818
1020
0060
2AE4
0180
0240
0700
0600
0A00
ENDCHAR
STARTCHAR G
ENCODING 71
SWIDTH 612 0
DWIDTH 7 0
BBX 7 12 0 -3
BITMAP
01A0
0618
0C18
2834
3410
7000
A2B8
A030
9060
A080
2640
0400
ENDCHAR
STARTCHAR H
ENCODING 72
SWIDTH 649 0
DWIDTH 8 0
BBX 8 11 0 -2
BITMAP
0505
0D0A
0C0D
181C
2418
3ABD
7634
60A0
A0A0
9090
D0D0
ENDCHAR
STARTCHAR I
ENCODING 73
SWIDTH 537 0
DWIDTH 6 0
BBX 7 11 -1 -2
BITMAP
0028
00DC
0198
0258
0264
0174
01B8
29A0
9090
A180
2A00
ENDCHAR
STARTCHAR J
ENCODING 74
SWIDTH 500 0
DWIDTH 6 0
BBX 8 12 -1 -3
BITMAP
01AA
0068
0024
0030
0070
0460
2C90
60D0
9180
C240
9A00
1400
ENDCHAR
STARTCHAR K
ENCODING 75
SWIDTH 497 0
DWIDTH 6 0
BBX 8 13 -1 -4
BITMAP
0205
070D
0A1C
0924
0CA0
1A40
2A90
24A0
3090
70C0
7180
00D4
0010
ENDCHAR
STARTCHAR L
ENCODING 76
SWIDTH 492 0
DWIDTH 6 0
BBX 8 12 -1 -3
BITMAP
0019
0069
0098
00F4
1BD0
0180
0240
0300
0600
BD00
A7A4
0050
ENDCHAR
STARTCHAR M
ENCODING 77
SWIDTH 733 0
DWIDTH 9 0
BBX 10 11 -1 -2
BITMAP
009050
01D1E0
029290
039280
0699C0
0A9980
59A580
8CB240
98A340
A85300
F00380
ENDCHAR
STARTCHAR N
ENCODING 78
SWIDTH 541 0
DWIDTH 7 0
BBX 9 11 -1 -2
BITMAP
050640
0B0980
0B0D40
0A2E00
1A2400
262400
262000
327000
71A000
71D000
70D000
ENDCHAR
STARTCHAR O
ENCODING 79
SWIDTH 567 0
DWIDTH 7 0
BBX 6 12 0 -3
BITMAP
0290
0D30
2830
3030
6030
A030
9070
D060
D0D0
9180
6A00
0400
ENDCHAR
STARTCHAR P
ENCODING 80
SWIDTH 552 0
DWIDTH 7 0
BBX 8 11 -1 -2
BITMAP
01A8
1F0A
0606
060A
090D
0824
0E90
1800
2800
3400
7000
ENDCHAR
STARTCHAR Q
ENCODING 81
SWIDTH 583 0
DWIDTH 7 0
BBX 7 11 0 -2
BITMAP
0290
0D24
2814
3018
6024
A024
A030
60A0
15C0
7B40
6990
ENDCHAR
STARTCHAR R
ENCODING 82
SWIDTH 560 0
DWIDTH 7 0
BBX 7 12 0 -3
BITMAP
06A0
3C28
1C1C
1818
1434
28A0
7F40
7240
6240
9180
C180
00A0
ENDCHAR
STARTCHAR S
ENCODING 83
SWIDTH 474 0
DWIDTH 6 0
BBX 7 12 -1 -3
BITMAP
01A4
0A0C
0C1C
0C14
0A00
0380
01C0
0090
6080
6080
3A40
0400
ENDCHAR
STARTCHAR T
ENCODING 84
SWIDTH 423 0
DWIDTH 5 0
BBX 7 11 0 -2
BITMAP
6AA4
5750
0600
0900
0900
0C00
1800
2800
2400
3000
7000
ENDCHAR
STARTCHAR U
ENCODING 85
SWIDTH 574 0
DWIDTH 7 0
BBX 8 11 0 -2
BITMAP
0509
1C1C
2828
3424
3030
6060
A0A0
9090
D1D0
D2C0
B990
ENDCHAR
STARTCHAR V
ENCODING 86
SWIDTH 503 0
DWIDTH 6 0
BBX 7 11 0 -2
BITMAP
1414
2424
3070
60A0
60D0
61C0
6280
6340
6200
2900
2800
ENDCHAR
STARTCHAR W
ENCODING 87
SWIDTH 817 0
DWIDTH 10 0
BBX 10 12 0 -3
BITMAP
090090
1830A0
247090
30A090
609090
6090C0
90C180
91C240
928300
959900
787800
001000
ENDCHAR
STARTCHAR X
ENCODING 88
SWIDTH 579 0
DWIDTH 7 0
BBX 9 11 -1 -2
BITMAP
0A0180
164740
2A8D00
0AA800
00F000
00D000
02C000
078000
0D9000
286100
703900
ENDCHAR
STARTCHAR Y
ENCODING 89
SWIDTH 532 0
DWIDTH 6 0
BBX 7 11 0 -2
BITMAP
1818
2828
3434
3030
6060
A0D0
92D0
7980
0180
5240
BD00
ENDCHAR
STARTCHAR Z
ENCODING 90
SWIDTH 455 0
DWIDTH 5 0
BBX 7 11 -1 -2
BITMAP
06A8
095C
0028
0070
00D0
0340
0A00
1800
3000
9540
FBD0
ENDCHAR
STARTCHAR bracketleft
ENCODING 91
SWIDTH 202 0
DWIDTH 2 0
BBX 5 12 -1 -2
BITMAP
0340
0600
0900
0800
1800
1400
2000
2000
2000
6000
6000
1000
ENDCHAR
STARTCHAR backslash
ENCODING 92
SWIDTH 273 0
DWIDTH 3 0
BBX 3 9 0 0
BITMAP
50
60
60
20
20
20
24
14
18
ENDCHAR
STARTCHAR bracketright
ENCODING 93
SWIDTH 216 0
DWIDTH 3 0
BBX 4 12 -1 -2
BITMAP
0B
02
06
05
08
08
08
14
20
20
A0
40
ENDCHAR
STARTCHAR asciicircum
ENCODING 94
SWIDTH 287 0
DWIDTH 3 0
BBX 4 5 0 4
BITMAP
09
29
26
96
41
ENDCHAR
STARTCHAR underscore
ENCODING 95
SWIDTH 439 0
DWIDTH 5 0
BBX 7 1 -2 0
BITMAP
6FF8
ENDCHAR
STARTCHAR grave
ENCODING 96
SWIDTH 567 0
DWIDTH 7 0
BBX 2 2 3 6
BITMAP
A0
10
ENDCHAR
STARTCHAR a
ENCODING 97
SWIDTH 435 0
DWIDTH 5 0
BBX 6 5 0 0
BITMAP
1900
6600
8610
C950
E640
ENDCHAR
STARTCHAR b
ENCODING 98
SWIDTH 415 0
DWIDTH 5 0
BBX 6 9 0 0
BITMAP
0400
1C00
2800
3400
7100
A790
8200
8900
A800
ENDCHAR
STARTCHAR c
ENCODING 99
SWIDTH 363 0
DWIDTH 4 0
BBX 5 6 0 -1
BITMAP
2900
9900
C040
C140
A900
1000
ENDCHAR
STARTCHAR d
ENCODING 100
SWIDTH 483 0
DWIDTH 6 0
BBX 7 10 0 -1
BITMAP
0010
00A0
00E0
00D0
1AC0
5340
8204
8620
E680
0100
ENDCHAR
STARTCHAR e
ENCODING 101
SWIDTH 372 0
DWIDTH 4 0
BBX 6 6 0 -1
BITMAP
1900
5900
E450
D140
A900
1000
ENDCHAR
STARTCHAR f
ENCODING 102
SWIDTH 325 0
DWIDTH 4 0
BBX 6 15 -1 -6
BITMAP
0100
0700
0600
0900
0800
0950
2900
3400
2800
6600
5300
8200
C900
E800
9000
ENDCHAR
STARTCHAR g
ENCODING 103
SWIDTH 459 0
DWIDTH 6 0
BBX 7 11 0 -6
BITMAP
2940
5740
8314
C650
AB40
1900
6800
8C00
9800
A400
6000
ENDCHAR
STARTCHAR h
ENCODING 104
SWIDTH 465 0
DWIDTH 6 0
BBX 7 8 0 0
BITMAP
1800
2400
3000
3600
7740
9304
8620
C780
ENDCHAR
STARTCHAR i
ENCODING 105
SWIDTH 274 0
DWIDTH 3 0
BBX 4 8 0 0
BITMAP
14
14
00
20
60
91
85
A4
ENDCHAR
STARTCHAR j
ENCODING 106
SWIDTH 267 0
DWIDTH 3 0
BBX 7 14 -3 -6
BITMAP
0020
0050
0000
0080
0180
0244
0254
0390
0600
1E00
2900
5C00
6800
1000
ENDCHAR
STARTCHAR k
ENCODING 107
SWIDTH 440 0
DWIDTH 5 0
BBX 6 10 0 -1
BITMAP
0400
2800
2400
3000
2600
6700
A910
8950
8A80
0100
ENDCHAR
STARTCHAR l
ENCODING 108
SWIDTH 218 0
DWIDTH 3 0
BBX 3 8 0 0
BITMAP
28
24
30
30
60
90
C0
C0
ENDCHAR
STARTCHAR m
ENCODING 109
SWIDTH 717 0
DWIDTH 9 0
BBX 10 6 0 -1
BITMAP
121400
7AAC00
A24C10
931880
C61A00
000400
ENDCHAR
STARTCHAR n
ENCODING 110
SWIDTH 461 0
DWIDTH 6 0
BBX 7 6 0 -1
BITMAP
1600
7700
9304
8620
C680
0100
ENDCHAR
STARTCHAR o
ENCODING 111
SWIDTH 393 0
DWIDTH 5 0
BBX 6 6 0 -1
BITMAP
2800
A510
E680
9900
A800
1000
ENDCHAR
STARTCHAR p
ENCODING 112
SWIDTH 451 0
DWIDTH 5 0
BBX 7 10 -1 -5
BITMAP
0580
1D90
2884
2594
3FA0
6400
5000
9000
C000
C000
ENDCHAR
STARTCHAR q
ENCODING 113
SWIDTH 462 0
DWIDTH 6 0
BBX 6 11 0 -6
BITMAP
1940
6340
C200
C310
DA50
1640
0900
0C00
1800
1800
0400
ENDCHAR
STARTCHAR r
ENCODING 114
SWIDTH 406 0
DWIDTH 5 0
BBX 7 7 -1 -1
BITMAP
0400
1D00
1A40
2244
5220
8690
0100
ENDCHAR
STARTCHAR s
ENCODING 115
SWIDTH 351 0
DWIDTH 4 0
BBX 4 7 0 -1
BITMAP
04
28
34
4C
49
A8
10
ENDCHAR
STARTCHAR t
ENCODING 116
SWIDTH 301 0
DWIDTH 4 0
BBX 6 10 -1 -1
BITMAP
0100
0700
5B90
1D00
0C00
1800
1410
2080
1A00
0400
ENDCHAR
STARTCHAR u
ENCODING 117
SWIDTH 468 0
DWIDTH 6 0
BBX 7 5 0 0
BITMAP
1100
9340
8704
C620
AA80
ENDCHAR
STARTCHAR v
ENCODING 118
SWIDTH 427 0
DWIDTH 5 0
BBX 6 5 0 0
BITMAP
5140
9340
C790
8800
B400
ENDCHAR
STARTCHAR w
ENCODING 119
SWIDTH 646 0
DWIDTH 8 0
BBX 9 5 0 0
BITMAP
120400
932800
962940
C52000
A69000
ENDCHAR
STARTCHAR x
ENCODING 120
SWIDTH 399 0
DWIDTH 5 0
BBX 6 5 -1 0
BITMAP
1490
1A80
0E00
1D10
6390
ENDCHAR
STARTCHAR y
ENCODING 121
SWIDTH 406 0
DWIDTH 5 0
BBX 5 10 0 -5
BITMAP
5100
9240
C300
CA00
E900
1800
0C00
1800
2800
2400
ENDCHAR
STARTCHAR z
ENCODING 122
SWIDTH 448 0
DWIDTH 5 0
BBX 7 10 -1 -5
BITMAP
0690
0490
0080
0388
05A0
06C0
1980
2240
6600
7D00
ENDCHAR
STARTCHAR braceleft
ENCODING 123
SWIDTH 243 0
DWIDTH 3 0
BBX 5 11 -1 -1
BITMAP
0280
0600
0500
0500
0900
2800
0800
1400
2000
6000
3400
ENDCHAR
STARTCHAR bar
ENCODING 124
SWIDTH 253 0
DWIDTH 3 0
BBX 3 9 0 0
BITMAP
08
18
14
20
20
60
50
90
C0
ENDCHAR
STARTCHAR braceright
ENCODING 125
SWIDTH 243 0
DWIDTH 3 0
BBX 4 12 -1 -2
BITMAP
09
07
02
05
08
09
08
24
24
24
A0
40
ENDCHAR
STARTCHAR asciitilde
ENCODING 126
SWIDTH 329 0
DWIDTH 4 0
BBX 4 2 0 3
BITMAP
AA
45
ENDCHAR
STARTCHAR uni00A0
ENCODING 160
SWIDTH 280 0
DWIDTH 3 0
BBX 1 1 0 0
BITMAP
00
ENDCHAR
STARTCHAR exclamdown
ENCODING 161
SWIDTH 249 0
DWIDTH 3 0
BBX 3 10 0 -1
BITMAP
08
04
14
24
30
60
A0
90
C0
40
ENDCHAR
STARTCHAR cent
ENCODING 162
SWIDTH 322 0
DWIDTH 4 0
BBX 4 9 0 0
BITMAP
01
09
26
56
80
80
84
64
60
ENDCHAR
STARTCHAR sterling
ENCODING 163
SWIDTH 318 0
DWIDTH 4 0
BBX 5 8 -1 0
BITMAP
0680
0880
0840
2900
2900
2000
6A00
1000
ENDCHAR
STARTCHAR currency
ENCODING 164
SWIDTH 347 0
DWIDTH 4 0
BBX 4 4 0 2
BITMAP
2A
25
69
41
ENDCHAR
STARTCHAR yen
ENCODING 165
SWIDTH 326 0
DWIDTH 4 0
BBX 5 7 0 1
BITMAP
2140
2200
2500
2800
7800
7400
2000
ENDCHAR
STARTCHAR brokenbar
ENCODING 166
SWIDTH 253 0
DWIDTH 3 0
BBX 3 9 0 0
BITMAP
08
18
14
20
00
20
50
90
C0
ENDCHAR
STARTCHAR section
ENCODING 167
SWIDTH 297 0
DWIDTH 4 0
BBX 5 10 -1 -1
BITMAP
0580
0880
0800
0A00
2140
2600
0900
1200
6500
0400
ENDCHAR
STARTCHAR dieresis
ENCODING 168
SWIDTH 567 0
DWIDTH 7 0
BBX 4 1 2 7
BITMAP
65
ENDCHAR
STARTCHAR copyright
ENCODING 169
SWIDTH 456 0
DWIDTH 5 0
BBX 6 7 0 2
BITMAP
0940
2650
5960
9420
9950
6580
0500
ENDCHAR
STARTCHAR ordfeminine
ENCODING 170
SWIDTH 373 0
DWIDTH 4 0
BBX 6 7 -1 -1
BITMAP
0600
1640
2200
2610
2540
6A40
5000
ENDCHAR
STARTCHAR guillemotleft
ENCODING 171
SWIDTH 346 0
DWIDTH 4 0
BBX 5 5 -1 0
BITMAP
0440
1640
6500
2600
1600
ENDCHAR
STARTCHAR logicalnot
ENCODING 172
SWIDTH 512 0
DWIDTH 6 0
BBX 6 3 0 2
BITMAP
AAA0
4020
0050
ENDCHAR
STARTCHAR sfthyphen
ENCODING 173
SWIDTH 353 0
DWIDTH 4 0
BBX 4 2 0 3
BITMAP
14
AA
ENDCHAR
STARTCHAR registered
ENCODING 174
SWIDTH 456 0
DWIDTH 5 0
BBX 6 7 0 2
BITMAP
0940
2950
5960
8A20
9650
6580
0500
ENDCHAR
STARTCHAR macron
ENCODING 175
SWIDTH 567 0
DWIDTH 7 0
BBX 4 1 2 7
BITMAP
69
ENDCHAR
STARTCHAR degree
ENCODING 176
SWIDTH 144 0
DWIDTH 2 0
BBX 2 2 1 6
BITMAP
90
40
ENDCHAR
STARTCHAR twosuperior
ENCODING 178
SWIDTH 268 0
DWIDTH 3 0
BBX 4 6 0 3
BITMAP
19
26
09
24
A4
68
ENDCHAR
STARTCHAR threesuperior
ENCODING 179
SWIDTH 262 0
DWIDTH 3 0
BBX 4 6 0 3
BITMAP
29
26
18
18
48
64
ENDCHAR
STARTCHAR acute
ENCODING 180
SWIDTH 567 0
DWIDTH 7 0
BBX 2 2 3 6
BITMAP
60
40
ENDCHAR
STARTCHAR mu
ENCODING 181
SWIDTH 453 0
DWIDTH 5 0
BBX 8 7 -2 -2
BITMAP
0010
0860
0890
1885
2EA4
3000
6000
ENDCHAR
STARTCHAR paragraph
ENCODING 182
SWIDTH 411 0
DWIDTH 5 0
BBX 6 9 0 0
BITMAP
0650
3F90
BE80
BD80
2D40
0940
0A00
1600
2600
ENDCHAR
STARTCHAR periodcentered
ENCODING 183
SWIDTH 168 0
DWIDTH 2 0
BBX 2 2 0 3
BITMAP
50
50
ENDCHAR
STARTCHAR cedilla
ENCODING 184
SWIDTH 567 0
DWIDTH 7 0
BBX 2 3 3 -2
BITMAP
90
70
50
ENDCHAR
STARTCHAR onesuperior
ENCODING 185
SWIDTH 150 0
DWIDTH 2 0
BBX 3 6 0 3
BITMAP
24
20
20
20
50
50
ENDCHAR
STARTCHAR ordmasculine
ENCODING 186
SWIDTH 319 0
DWIDTH 4 0
BBX 6 7 -1 -1
BITMAP
0900
2610
3A80
2200
2800
6900
4000
ENDCHAR
STARTCHAR guillemotright
ENCODING 187
SWIDTH 346 0
DWIDTH 4 0
BBX 5 5 -1 0
BITMAP
1100
2600
1940
2600
5900
ENDCHAR
STARTCHAR onequarter
ENCODING 188
SWIDTH 579 0
DWIDTH 7 0
BBX 7 9 0 0
BITMAP
2414
2060
2080
2240
5634
58A0
26B0
6020
C060
ENDCHAR
STARTCHAR onehalf
ENCODING 189
SWIDTH 603 0
DWIDTH 7 0
BBX 7 9 0 0
BITMAP
2414
2020
2080
2154
569C
5858
2420
6090
C1E4
ENDCHAR
STARTCHAR threequarters
ENCODING 190
SWIDTH 669 0
DWIDTH 8 0
BBX 8 9 0 0
BITMAP
2905
2608
1820
1851
498D
6628
09AD
1808
2018
ENDCHAR
STARTCHAR questiondown
ENCODING 191
SWIDTH 413 0
DWIDTH 5 0
BBX 6 10 -1 -1
BITMAP
0060
0010
0090
00C0
0680
2800
6000
90D0
6680
0500
ENDCHAR
STARTCHAR Agrave
ENCODING 192
SWIDTH 552 0
DWIDTH 7 0
BBX 7 14 -1 -3
BITMAP
0028
0004
0028
0088
0248
0618
0914
0C24
1EB4
7874
3470
7060
E070
0020
ENDCHAR
STARTCHAR Aacute
ENCODING 193
SWIDTH 552 0
DWIDTH 7 0
BBX 7 14 -1 -3
BITMAP
0018
0010
0028
0088
0248
0618
0914
0C24
1EB4
7874
3470
7060
E070
0020
ENDCHAR
STARTCHAR Acircumflex
ENCODING 194
SWIDTH 552 0
DWIDTH 7 0
BBX 8 15 -1 -3
BITMAP
0004
0029
0000
0028
0088
0248
0618
0914
0C24
1EB4
7874
3470
7060
E070
0020
ENDCHAR
STARTCHAR Atilde
ENCODING 195
SWIDTH 552 0
DWIDTH 7 0
BBX 8 14 -1 -3
BITMAP
006A
0000
0028
0088
0248
0618
0914
0C24
1EB4
7874
3470
7060
E070
0020
ENDCHAR
STARTCHAR Adieresis
ENCODING 196
SWIDTH 552 0
DWIDTH 7 0
BBX 8 14 -1 -3
BITMAP
0026
0000
0028
0088
0248
0618
0914
0C24
1EB4
7874
3470
7060
E070
0020
ENDCHAR
STARTCHAR Aring
ENCODING 197
SWIDTH 552 0
DWIDTH 7 0
BBX 7 13 -1 -3
BITMAP
0028
0028
0088
0248
0618
0914
0C24
1EB4
7874
3470
7060
E070
0020
ENDCHAR
STARTCHAR AE
ENCODING 198
SWIDTH 869 0
DWIDTH 10 0
BBX 12 12 -1 -3
BITMAP
0028A8
008F46
024E09
061D18
091E00
0C2790
1EBD40
787400
347004
707420
E07E90
002000
ENDCHAR
STARTCHAR Ccedilla
ENCODING 199
SWIDTH 548 0
DWIDTH 7 0
BBX 7 14 0 -5
BITMAP
01A0
0A28
1828
3434
7010
A000
D000
D000
D000
A080
3A40
1800
0900
1400
ENDCHAR
STARTCHAR Egrave
ENCODING 200
SWIDTH 523 0
DWIDTH 6 0
BBX 8 13 -1 -2
BITMAP
0024
0004
00A8
0749
0D09
0D18
0D00
0780
1940
3000
7004
7420
2E80
ENDCHAR
STARTCHAR Eacute
ENCODING 201
SWIDTH 523 0
DWIDTH 6 0
BBX 8 13 -1 -2
BITMAP
0018
0010
00A8
0749
0D09
0D18
0D00
0780
1940
3000
7004
7420
2E80
ENDCHAR
STARTCHAR Ecircumflex
ENCODING 202
SWIDTH 523 0
DWIDTH 6 0
BBX 8 14 -1 -2
BITMAP
0004
0029
0000
00A8
0749
0D09
0D18
0D00
0780
1940
3000
7004
7420
2E80
ENDCHAR
STARTCHAR Edieresis
ENCODING 203
SWIDTH 523 0
DWIDTH 6 0
BBX 8 13 -1 -2
BITMAP
0065
0000
00A8
0749
0D09
0D18
0D00
0780
1940
3000
7004
7420
2E80
ENDCHAR
STARTCHAR Igrave
ENCODING 204
SWIDTH 537 0
DWIDTH 6 0
BBX 7 13 -1 -2
BITMAP
0028
0004
0028
00DC
0198
0258
0264
0174
01B8
29A0
9090
A180
2A00
ENDCHAR
STARTCHAR Iacute
ENCODING 205
SWIDTH 537 0
DWIDTH 6 0
BBX 8 13 -1 -2
BITMAP
0019
0010
0028
00DC
0198
0258
0264
0174
01B8
29A0
9090
A180
2A00
ENDCHAR
STARTCHAR Icircumflex
ENCODING 206
SWIDTH 537 0
DWIDTH 6 0
BBX 8 13 -1 -2
BITMAP
001A
0000
0028
00DC
0198
0258
0264
0174
01B8
29A0
9090
A180
2A00
ENDCHAR
STARTCHAR Idieresis
ENCODING 207
SWIDTH 537 0
DWIDTH 6 0
BBX 8 13 -1 -2
BITMAP
0026
0000
0028
00DC
0198
0258
0264
0174
01B8
29A0
9090
A180
2A00
ENDCHAR
STARTCHAR Eth
ENCODING 208
SWIDTH 632 0
DWIDTH 8 0
BBX 7 11 0 -2
BITMAP
0A90
2474
0C18
1C0C
180C
BE1C
2418
3034
6060
91C0
AA00
ENDCHAR
STARTCHAR Ntilde
ENCODING 209
SWIDTH 541 0
DWIDTH 7 0
BBX 9 12 -1 -2
BITMAP
00A900
050640
0B0980
0B0D40
0A2E00
1A2400
262400
262000
327000
71A000
71D000
70D000
ENDCHAR
STARTCHAR Ograve
ENCODING 210
SWIDTH 567 0
DWIDTH 7 0
BBX 6 14 0 -3
BITMAP
0090
0010
0290
0D30
2830
3030
6030
A030
9070
D060
D0D0
9180
6A00
0400
ENDCHAR
STARTCHAR Oacute
ENCODING 211
SWIDTH 567 0
DWIDTH 7 0
BBX 6 14 0 -3
BITMAP
00A0
0040
0290
0D30
2830
3030
6030
A030
9070
D060
D0D0
9180
6A00
0400
ENDCHAR
STARTCHAR Ocircumflex
ENCODING 212
SWIDTH 567 0
DWIDTH 7 0
BBX 6 14 0 -3
BITMAP
01A0
0000
0290
0D30
2830
3030
6030
A030
9070
D060
D0D0
9180
6A00
0400
ENDCHAR
STARTCHAR Otilde
ENCODING 213
SWIDTH 567 0
DWIDTH 7 0
BBX 7 14 0 -3
BITMAP
02A4
0000
0290
0D30
2830
3030
6030
A030
9070
D060
D0D0
9180
6A00
0400
ENDCHAR
STARTCHAR Odieresis
ENCODING 214
SWIDTH 567 0
DWIDTH 7 0
BBX 6 14 0 -3
BITMAP
0260
0000
0290
0D30
2830
3030
6030
A030
9070
D060
D0D0
9180
6A00
0400
ENDCHAR
STARTCHAR multiply
ENCODING 215
SWIDTH 281 0
DWIDTH 3 0
BBX 4 4 0 2
BITMAP
66
38
70
94
ENDCHAR
STARTCHAR Oslash
ENCODING 216
SWIDTH 597 0
DWIDTH 7 0
BBX 7 12 0 -3
BITMAP
02A8
0A34
1874
34E4
72A4
6334
9930
AC60
B490
B180
F600
4400
ENDCHAR
STARTCHAR Ugrave
ENCODING 217
SWIDTH 574 0
DWIDTH 7 0
BBX 8 13 0 -2
BITMAP
0090
0010
0509
1C1C
2828
3424
3030
6060
A0A0
9090
D1D0
D2C0
B990
ENDCHAR
STARTCHAR Uacute
ENCODING 218
SWIDTH 574 0
DWIDTH 7 0
BBX 8 13 0 -2
BITMAP
0064
0040
0509
1C1C
2828
3424
3030
6060
A0A0
9090
D1D0
D2C0
B990
ENDCHAR
STARTCHAR Ucircumflex
ENCODING 219
SWIDTH 574 0
DWIDTH 7 0
BBX 8 14 0 -2
BITMAP
0010
00A4
0000
0509
1C1C
2828
3424
3030
6060
A0A0
9090
D1D0
D2C0
B990
ENDCHAR
STARTCHAR Udieresis
ENCODING 220
SWIDTH 574 0
DWIDTH 7 0
BBX 8 13 0 -2
BITMAP
0164
0000
0509
1C1C
2828
3424
3030
6060
A0A0
9090
D1D0
D2C0
B990
ENDCHAR
STARTCHAR Yacute
ENCODING 221
SWIDTH 532 0
DWIDTH 6 0
BBX 7 13 0 -2
BITMAP
0060
0040
1818
2828
3434
3030
6060
A0D0
92D0
7980
0180
5240
BD00
ENDCHAR
STARTCHAR Thorn
ENCODING 222
SWIDTH 569 0
DWIDTH 7 0
BBX 8 11 -1 -2
BITMAP
0200
0700
07A4
1D0D
1C09
1809
181C
2474
3A80
3000
7000
ENDCHAR
STARTCHAR germandbls
ENCODING 223
SWIDTH 495 0
DWIDTH 6 0
BBX 8 14 -2 -6
BITMAP
00A4
0188
0224
0220
0520
0818
1C09
1AA8
2550
2180
2140
6300
6D00
2400
ENDCHAR
STARTCHAR agrave
ENCODING 224
SWIDTH 435 0
DWIDTH 5 0
BBX 6 7 0 0
BITMAP
1900
0100
1900
6600
8610
C950
E640
ENDCHAR
STARTCHAR aacute
ENCODING 225
SWIDTH 435 0
DWIDTH 5 0
BBX 6 7 0 0
BITMAP
0A00
0400
1900
6600
8610
C950
E640
ENDCHAR
STARTCHAR acircumflex
ENCODING 226
SWIDTH 435 0
DWIDTH 5 0
BBX 6 7 0 0
BITMAP
1A00
0000
1900
6600
8610
C950
E640
ENDCHAR
STARTCHAR atilde
ENCODING 227
SWIDTH 435 0
DWIDTH 5 0
BBX 6 7 0 0
BITMAP
2A40
0000
1900
6600
8610
C950
E640
ENDCHAR
STARTCHAR adieresis
ENCODING 228
SWIDTH 435 0
DWIDTH 5 0
BBX 6 7 0 0
BITMAP
1940
0000
1900
6600
8610
C950
E640
ENDCHAR
STARTCHAR aring
ENCODING 229
SWIDTH 435 0
DWIDTH 5 0
BBX 6 7 0 0
BITMAP
0900
0400
1900
6600
8610
C950
E640
ENDCHAR
STARTCHAR ae
ENCODING 230
SWIDTH 594 0
DWIDTH 7 0
BBX 8 6 0 -1
BITMAP
19A0
6760
8781
CA05
E7A4
0040
ENDCHAR
STARTCHAR ccedilla
ENCODING 231
SWIDTH 363 0
DWIDTH 4 0
BBX 5 8 0 -3
BITMAP
2900
9900
C040
C140
A900
2000
2800
1000
ENDCHAR
STARTCHAR egrave
ENCODING 232
SWIDTH 372 0
DWIDTH 4 0
BBX 6 8 0 -1
BITMAP
1800
0000
1900
5900
E450
D140
A900
1000
ENDCHAR
STARTCHAR eacute
ENCODING 233
SWIDTH 372 0
DWIDTH 4 0
BBX 6 8 0 -1
BITMAP
0A00
0400
1900
5900
E450
D140
A900
1000
ENDCHAR
STARTCHAR ecircumflex
ENCODING 234
SWIDTH 372 0
DWIDTH 4 0
BBX 6 8 0 -1
BITMAP
1A00
0000
1900
5900
E450
D140
A900
1000
ENDCHAR
STARTCHAR edieresis
ENCODING 235
SWIDTH 372 0
DWIDTH 4 0
BBX 6 8 0 -1
BITMAP
2600
0000
1900
5900
E450
D140
A900
1000
ENDCHAR
STARTCHAR igrave
ENCODING 236
SWIDTH 274 0
DWIDTH 3 0
BBX 4 7 0 0
BITMAP
A0
00
20
60
91
85
A4
ENDCHAR
STARTCHAR iacute
ENCODING 237
SWIDTH 274 0
DWIDTH 3 0
BBX 4 7 0 0
BITMAP
09
10
20
60
91
85
A4
ENDCHAR
STARTCHAR icircumflex
ENCODING 238
SWIDTH 274 0
DWIDTH 3 0
BBX 4 7 0 0
BITMAP
68
00
20
60
91
85
A4
ENDCHAR
STARTCHAR idieresis
ENCODING 239
SWIDTH 274 0
DWIDTH 3 0
BBX 4 7 0 0
BITMAP
59
00
20
60
91
85
A4
ENDCHAR
STARTCHAR eth
ENCODING 240
SWIDTH 393 0
DWIDTH 5 0
BBX 6 9 0 -1
BITMAP
0400
0680
1600
2A00
A610
E780
9900
A800
1000
ENDCHAR
STARTCHAR ntilde
ENCODING 241
SWIDTH 461 0
DWIDTH 6 0
BBX 7 8 0 -1
BITMAP
2A40
0000
1600
7700
9304
8620
C680
0100
ENDCHAR
STARTCHAR ograve
ENCODING 242
SWIDTH 393 0
DWIDTH 5 0
BBX 6 8 0 -1
BITMAP
1800
0000
2800
A510
E680
9900
A800
1000
ENDCHAR
STARTCHAR oacute
ENCODING 243
SWIDTH 393 0
DWIDTH 5 0
BBX 6 8 0 -1
BITMAP
0A00
0400
2800
A510
E680
9900
A800
1000
ENDCHAR
STARTCHAR ocircumflex
ENCODING 244
SWIDTH 393 0
DWIDTH 5 0
BBX 6 9 0 -1
BITMAP
0400
2900
0000
2800
A510
E680
9900
A800
1000
ENDCHAR
STARTCHAR otilde
ENCODING 245
SWIDTH 393 0
DWIDTH 5 0
BBX 6 8 0 -1
BITMAP
6A00
0000
2800
A510
E680
9900
A800
1000
ENDCHAR
STARTCHAR odieresis
ENCODING 246
SWIDTH 393 0
DWIDTH 5 0
BBX 6 8 0 -1
BITMAP
2600
0000
2800
A510
E680
9900
A800
1000
ENDCHAR
STARTCHAR divide
ENCODING 247
SWIDTH 350 0
DWIDTH 4 0
BBX 4 4 0 2
BITMAP
08
AA
50
10
ENDCHAR
STARTCHAR oslash
ENCODING 248
SWIDTH 406 0
DWIDTH 5 0
BBX 7 6 -1 -1
BITMAP
0A80
1884
29E0
2240
3A00
6400
ENDCHAR
STARTCHAR ugrave
ENCODING 249
SWIDTH 468 0
DWIDTH 6 0
BBX 7 7 0 0
BITMAP
1900
0100
1100
9340
8704
C620
AA80
ENDCHAR
STARTCHAR uacute
ENCODING 250
SWIDTH 468 0
DWIDTH 6 0
BBX 7 7 0 0
BITMAP
0600
0400
1100
9340
8704
C620
AA80
ENDCHAR
STARTCHAR ucircumflex
ENCODING 251
SWIDTH 468 0
DWIDTH 6 0
BBX 7 7 0 0
BITMAP
1A00
0000
1100
9340
8704
C620
AA80
ENDCHAR
STARTCHAR udieresis
ENCODING 252
SWIDTH 468 0
DWIDTH 6 0
BBX 7 7 0 0
BITMAP
1940
0000
1100
9340
8704
C620
AA80
ENDCHAR
STARTCHAR yacute
ENCODING 253
SWIDTH 406 0
DWIDTH 5 0
BBX 5 12 0 -5
BITMAP
0600
0400
5100
9240
C300
CA00
E900
1800
0C00
1800
2800
2400
ENDCHAR
STARTCHAR thorn
ENCODING 254
SWIDTH 451 0
DWIDTH 5 0
BBX 7 13 -1 -5
BITMAP
0600
0A00
0900
0D80
1D90
2884
2594
3FA0
6400
5000
9000
C000
C000
ENDCHAR
STARTCHAR ydieresis
ENCODING 255
SWIDTH 406 0
DWIDTH 5 0
BBX 5 12 0 -5
BITMAP
2600
0000
5100
9240
C300
CA00
E900
1800
0C00
1800
2800
2400
ENDCHAR
STARTCHAR dotlessi
ENCODING 305
SWIDTH 274 0
DWIDTH 3 0
BBX 4 5 0 0
BITMAP
20
60
91
85
A4
ENDCHAR
STARTCHAR Lslash
ENCODING 321
SWIDTH 492 0
DWIDTH 6 0
BBX 8 12 -1 -3
BITMAP
0019
0069
0098
00F4
1BD0
0180
0BD0
1700
0600
BD00
A7A4
0050
ENDCHAR
STARTCHAR lslash
ENCODING 322
SWIDTH 218 0
DWIDTH 3 0
BBX 5 8 -1 0
BITMAP
0A00
0900
0C00
6E40
6800
2400
3000
3000
ENDCHAR
STARTCHAR OE
ENCODING 338
SWIDTH 918 0
DWIDTH 11 0
BBX 11 12 0 -3
BITMAP
0291A4
0D3608
283D0C
303C24
603C00
A03B80
907840
D07000
D0E010
91F060
6A2E80
040000
ENDCHAR
STARTCHAR oe
ENCODING 339
SWIDTH 583 0
DWIDTH 7 0
BBX 8 6 0 -1
BITMAP
28A0
A760
EB91
8A05
ABA4
0040
ENDCHAR
STARTCHAR Scaron
ENCODING 352
SWIDTH 474 0
DWIDTH 6 0
BBX 8 14 -1 -3
BITMAP
0029
0000
01A4
0A0C
0C1C
0C14
0A00
0380
01C0
0090
6080
6080
3A40
0400
ENDCHAR
STARTCHAR scaron
ENCODING 353
SWIDTH 351 0
DWIDTH 4 0
BBX 4 8 0 -1
BITMAP
1A
04
28
34
4C
49
A8
10
ENDCHAR
STARTCHAR Ydieresis
ENCODING 376
SWIDTH 532 0
DWIDTH 6 0
BBX 7 13 0 -2
BITMAP
0260
0000
1818
2828
3434
3030
6060
A0D0
92D0
7980
0180
5240
BD00
ENDCHAR
STARTCHAR Zcaron
ENCODING 381
SWIDTH 455 0
DWIDTH 5 0
BBX 7 13 -1 -2
BITMAP
0068
0000
06A8
095C
0028
0070
00D0
0340
0A00
1800
3000
9540
FBD0
ENDCHAR
STARTCHAR zcaron
ENCODING 382
SWIDTH 349 0
DWIDTH 4 0
BBX 7 13 -2 -6
BITMAP
01A0
0040
0690
0480
0180
0744
0990
0680
1980
6200
9600
6800
1000
ENDCHAR
STARTCHAR circumflex
ENCODING 710
SWIDTH 567 0
DWIDTH 7 0
BBX 3 2 3 7
BITMAP
10
A4
ENDCHAR
STARTCHAR caron
ENCODING 711
SWIDTH 567 0
DWIDTH 7 0
BBX 2 1 3 7
BITMAP
A0
ENDCHAR
STARTCHAR breve
ENCODING 728
SWIDTH 567 0
DWIDTH 7 0
BBX 4 2 2 6
BITMAP
65
14
ENDCHAR
STARTCHAR dotaccent
ENCODING 729
SWIDTH 567 0
DWIDTH 7 0
BBX 2 1 3 7
BITMAP
60
ENDCHAR
STARTCHAR ring
ENCODING 730
SWIDTH 567 0
DWIDTH 7 0
BBX 2 2 3 6
BITMAP
60
50
ENDCHAR
STARTCHAR ogonek
ENCODING 731
SWIDTH 567 0
DWIDTH 7 0
BBX 4 3 2 -2
BITMAP
10
65
10
ENDCHAR
STARTCHAR tilde
ENCODING 732
SWIDTH 567 0
DWIDTH 7 0
BBX 4 1 2 7
BITMAP
6A
ENDCHAR
STARTCHAR hungarumlaut
ENCODING 733
SWIDTH 567 0
DWIDTH 7 0
BBX 4 2 2 6
BITMAP
66
44
ENDCHAR
STARTCHAR endash
ENCODING 8211
SWIDTH 353 0
DWIDTH 4 0
BBX 4 2 0 3
BITMAP
14
AA
ENDCHAR
STARTCHAR emdash
ENCODING 8212
SWIDTH 508 0
DWIDTH 6 0
BBX 6 2 0 3
BITMAP
1540
AAA0
ENDCHAR
STARTCHAR quoteleft
ENCODING 8216
SWIDTH 155 0
DWIDTH 2 0
BBX 2 3 0 5
BITMAP
10
60
10
ENDCHAR
STARTCHAR quoteright
ENCODING 8217
SWIDTH 154 0
DWIDTH 2 0
BBX 1 2 1 6
BITMAP
C0
80
ENDCHAR
STARTCHAR quotesinglbase
ENCODING 8218
SWIDTH 188 0
DWIDTH 2 0
BBX 2 2 -1 -1
BITMAP
70
20
ENDCHAR
STARTCHAR quotedblleft
ENCODING 8220
SWIDTH 289 0
DWIDTH 3 0
BBX 4 3 0 5
BITMAP
15
69
14
ENDCHAR
STARTCHAR quotedblright
ENCODING 8221
SWIDTH 288 0
DWIDTH 3 0
BBX 3 3 1 5
BITMAP
E8
94
10
ENDCHAR
STARTCHAR quotedblbase
ENCODING 8222
SWIDTH 323 0
DWIDTH 4 0
BBX 4 3 -1 -2
BITMAP
7A
25
04
ENDCHAR
STARTCHAR bullet
ENCODING 8226
SWIDTH 180 0
DWIDTH 2 0
BBX 2 3 0 2
BITMAP
50
E0
D0
ENDCHAR
STARTCHAR ellipsis
ENCODING 8230
SWIDTH 614 0
DWIDTH 7 0
BBX 7 2 -1 -1
BITMAP
6258
1100
ENDCHAR
STARTCHAR perthousand
ENCODING 8240
SWIDTH 851 0
DWIDTH 10 0
BBX 10 9 0 0
BITMAP
180800
662000
559000
598000
160000
09A190
195620
222960
92A680
ENDCHAR
STARTCHAR guilsinglleft
ENCODING 8249
SWIDTH 202 0
DWIDTH 2 0
BBX 3 5 -1 0
BITMAP
04
14
60
20
14
ENDCHAR
STARTCHAR guilsinglright
ENCODING 8250
SWIDTH 202 0
DWIDTH 2 0
BBX 3 5 -1 0
BITMAP
10
24
18
24
50
ENDCHAR
STARTCHAR fraction
ENCODING 8260
SWIDTH 600 0
DWIDTH 7 0
BBX 7 9 0 0
BITMAP
0008
0024
0060
0080
0240
0600
0800
2400
6000
ENDCHAR
STARTCHAR Euro
ENCODING 8364
SWIDTH 334 0
DWIDTH 4 0
BBX 6 7 -1 1
BITMAP
0190
0910
1C00
2A40
7A00
2000
1640
ENDCHAR
STARTCHAR minus
ENCODING 8722
SWIDTH 353 0
DWIDTH 4 0
BBX 4 2 0 3
BITMAP
14
AA
ENDCHAR
STARTCHAR fi
ENCODING 64257
SWIDTH 549 0
DWIDTH 7 0
BBX 9 15 -1 -6
BITMAP
010000
070800
060400
090000
081000
097000
296040
345200
286800
660000
530000
820000
C90000
E80000
900000
ENDCHAR
STARTCHAR fl
ENCODING 64258
SWIDTH 516 0
DWIDTH 6 0
BBX 8 15 -1 -6
BITMAP
0100
070D
060C
0918
0824
0974
2930
3460
2890
6600
5300
8200
C900
E800
9000
ENDCHAR
STARTCHAR .notdef
ENCODING -1
SWIDTH 280 0
DWIDTH 3 0
BBX 1 1 0 0
BITMAP
00
ENDCHAR
ENDFONT
